<?xml version="1.0" encoding="UTF-8"?>
<svg version="1.1" xmlns="http://www.w3.org/2000/svg" width="256" height="256">
<path d="M0 0 C3.16384697 0.00315004 6.32674713 -0.02033265 9.49047852 -0.0456543 C39.79247567 -0.1418417 65.72628296 7.0735116 89.50024414 26.31567383 C90.17700195 26.85063477 90.85375977 27.3855957 91.55102539 27.93676758 C111.10680089 43.93694754 125.54140689 70.65952759 128.30541992 95.7956543 C130.78396769 127.85526586 124.97238696 158.59137987 103.8605957 183.75610352 C83.89425469 206.64644566 57.0481559 221.7343719 26.50024414 224.31567383 C23.14833508 224.46489712 19.80050963 224.50256438 16.44555664 224.51879883 C15.50453094 224.5244989 14.56350525 224.53019897 13.59396362 224.53607178 C11.60895897 224.54546684 9.62393912 224.55203373 7.63891602 224.5559082 C4.66791939 224.56553554 1.69763923 224.59657973 -1.27319336 224.62817383 C-16.60697359 224.71403418 -32.17959354 223.86647228 -46.74975586 218.62817383 C-47.48025146 218.37326172 -48.21074707 218.11834961 -48.96337891 217.85571289 C-61.96319254 213.13568512 -72.92742755 206.13971347 -83.49975586 197.31567383 C-84.40725586 196.56157227 -85.31475586 195.8074707 -86.24975586 195.03051758 C-105.91727288 178.03130698 -118.77508613 152.14862739 -121.49975586 126.31567383 C-122.25377623 110.31470593 -122.41398228 94.67216068 -117.49975586 79.31567383 C-117.2907666 78.63794922 -117.08177734 77.96022461 -116.86645508 77.26196289 C-112.22088187 62.5562008 -104.48015005 50.01834843 -94.49975586 38.31567383 C-94.06147461 37.7562207 -93.62319336 37.19676758 -93.17163086 36.62036133 C-78.953911 18.5164647 -55.57942133 7.15065418 -33.49975586 2.31567383 C-32.64986084 2.12948486 -31.79996582 1.9432959 -30.92431641 1.75146484 C-20.68020533 -0.14897282 -10.38565112 -0.02157186 0 0 Z " fill="#C0C0C0" transform="translate(124.499755859375,15.684326171875)"/>
<path d="M0 0 C1.03253906 0.350625 2.06507813 0.70125 3.12890625 1.0625 C21.56088497 7.98350374 35.83000955 21.85425042 45 39 C45.49242187 39.89203125 45.98484375 40.7840625 46.4921875 41.703125 C55.03251851 58.58164901 55.64791826 81.17187367 50 99 C42.82077051 119.53331376 29.17511088 135.89372337 9.625 145.69140625 C-10.09000473 154.98882325 -31.19117604 157.32315205 -52 150 C-61.70093234 146.15778303 -70.30801751 141.09125041 -78 134 C-78.85207031 133.22785156 -79.70414063 132.45570313 -80.58203125 131.66015625 C-93.45193742 119.44628728 -103.26262287 101.68155357 -104.10986328 83.66357422 C-104.58306963 63.14868727 -102.23011867 46.13237918 -90 29 C-89.39285156 28.14535156 -88.78570312 27.29070312 -88.16015625 26.41015625 C-77.1594193 11.80999617 -61.56778627 2.42480402 -44 -2 C-42.76121094 -2.35578125 -41.52242187 -2.7115625 -40.24609375 -3.078125 C-27.08974406 -6.32656781 -12.58461958 -4.46408909 0 0 Z " fill="#949494" transform="translate(167,53)"/>
<path d="M0 0 C3.16384697 0.00315004 6.32674713 -0.02033265 9.49047852 -0.0456543 C39.79247567 -0.1418417 65.72628296 7.0735116 89.50024414 26.31567383 C90.17700195 26.85063477 90.85375977 27.3855957 91.55102539 27.93676758 C111.10680089 43.93694754 125.54140689 70.65952759 128.30541992 95.7956543 C130.78396769 127.85526586 124.97238696 158.59137987 103.8605957 183.75610352 C83.89425469 206.64644566 57.0481559 221.7343719 26.50024414 224.31567383 C23.14833508 224.46489712 19.80050963 224.50256438 16.44555664 224.51879883 C15.50453094 224.5244989 14.56350525 224.53019897 13.59396362 224.53607178 C11.60895897 224.54546684 9.62393912 224.55203373 7.63891602 224.5559082 C4.66791939 224.56553554 1.69763923 224.59657973 -1.27319336 224.62817383 C-16.60697359 224.71403418 -32.17959354 223.86647228 -46.74975586 218.62817383 C-47.48025146 218.37326172 -48.21074707 218.11834961 -48.96337891 217.85571289 C-61.96319254 213.13568512 -72.92742755 206.13971347 -83.49975586 197.31567383 C-84.40725586 196.56157227 -85.31475586 195.8074707 -86.24975586 195.03051758 C-105.91727288 178.03130698 -118.77508613 152.14862739 -121.49975586 126.31567383 C-122.25377623 110.31470593 -122.41398228 94.67216068 -117.49975586 79.31567383 C-117.2907666 78.63794922 -117.08177734 77.96022461 -116.86645508 77.26196289 C-112.22088187 62.5562008 -104.48015005 50.01834843 -94.49975586 38.31567383 C-94.06147461 37.7562207 -93.62319336 37.19676758 -93.17163086 36.62036133 C-78.953911 18.5164647 -55.57942133 7.15065418 -33.49975586 2.31567383 C-32.64986084 2.12948486 -31.79996582 1.9432959 -30.92431641 1.75146484 C-20.68020533 -0.14897282 -10.38565112 -0.02157186 0 0 Z M-51.49975586 30.31567383 C-52.49749023 31.13680664 -53.49522461 31.95793945 -54.52319336 32.80395508 C-70.16281404 46.14769049 -81.17843574 64.49568439 -86.49975586 84.31567383 C-86.94641602 85.91475586 -86.94641602 85.91475586 -87.40209961 87.54614258 C-94.12484697 115.45948531 -88.24316317 145.8415084 -73.36450195 170.17211914 C-70.97408996 173.750859 -68.29117972 177.04558475 -65.49975586 180.31567383 C-64.73018555 181.24637695 -63.96061523 182.17708008 -63.16772461 183.13598633 C-46.56227859 202.39723066 -23.4619913 214.26878543 1.50024414 218.31567383 C6.40658678 218.67862307 11.27031274 218.69332263 16.18774414 218.62817383 C17.41557617 218.63139648 18.6434082 218.63461914 19.90844727 218.63793945 C30.54430368 218.57560891 40.25577016 217.05601497 50.31274414 213.62817383 C51.08118652 213.36689697 51.84962891 213.10562012 52.64135742 212.83642578 C64.91359843 208.53490734 75.39546428 202.54701275 85.50024414 194.31567383 C86.22856445 193.74075195 86.95688477 193.16583008 87.70727539 192.57348633 C100.48872456 182.0357235 110.40803533 166.61388707 116.50024414 151.31567383 C116.86891602 150.40043945 117.23758789 149.48520508 117.61743164 148.54223633 C119.91775943 142.54795149 121.52957433 136.6607891 122.50024414 130.31567383 C122.6684668 129.25413086 122.6684668 129.25413086 122.84008789 128.17114258 C126.49049318 99.61797245 120.18563424 72.36692634 103.06274414 49.06567383 C101.55656929 47.13746677 100.03655972 45.21995311 98.50024414 43.31567383 C97.88665039 42.53579102 97.27305664 41.7559082 96.64086914 40.95239258 C81.43784714 22.66328705 57.18486457 9.65005739 33.72729492 6.50756836 C28.45684179 6.05343811 23.16119277 6.13097063 17.87524414 6.12817383 C16.08280273 6.10980469 16.08280273 6.10980469 14.25415039 6.09106445 C-10.88222553 6.05021444 -32.22268575 14.39000809 -51.49975586 30.31567383 Z " fill="#050505" transform="translate(124.499755859375,15.684326171875)"/>
<path d="M0 0 C0.78246094 0.05542969 1.56492188 0.11085938 2.37109375 0.16796875 C4.5625 0.8125 4.5625 0.8125 6.3359375 2.50390625 C7.86531772 5.38245309 7.86573109 7.32202947 7.75 10.5625 C7.70939453 12.03976563 7.70939453 12.03976563 7.66796875 13.546875 C7.63316406 14.29453125 7.59835938 15.0421875 7.5625 15.8125 C8.8309375 16.121875 8.8309375 16.121875 10.125 16.4375 C17.32179159 19.31621664 21.47902882 24.07661606 24.6796875 31.08203125 C26.16758009 35.68396451 26.4368112 40.05498678 25.5625 44.8125 C23.6656157 47.46813802 22.41764945 48.38492527 19.5625 49.8125 C15.72666465 50.32394471 14.08505176 50.177071 10.875 47.9375 C8.22487233 44.3562464 7.36969651 41.32560394 6.43359375 37.01953125 C5.75060235 34.67771358 5.75060235 34.67771358 3.66015625 33.53515625 C0.75609967 32.53468983 -1.38688288 32.43117286 -4.4375 32.8125 C-6.97752013 34.18533423 -6.97752013 34.18533423 -8.4375 36.8125 C-8.99499493 39.58859721 -9.16671721 42.06721167 -8.4375 44.8125 C-6.34877095 47.54541651 -5.06096285 48.65574363 -1.703125 49.5 C-0.70796875 49.603125 0.2871875 49.70625 1.3125 49.8125 C10.0741218 51.06872281 15.48196445 53.7273143 21.0859375 60.6875 C25.83533711 67.52261478 26.53493773 74.61160846 25.5625 82.8125 C23.4862833 90.12390826 19.46787704 96.26186574 12.875 100.1875 C9.5625 101.8125 9.5625 101.8125 7.5625 101.8125 C7.60890625 102.56015625 7.6553125 103.3078125 7.703125 104.078125 C8.00074701 112.19895418 8.00074701 112.19895418 5.6875 115.4375 C2.07826938 117.77288452 -0.09348444 118.32356065 -4.4375 117.8125 C-7.01035724 115.639865 -8.92746919 113.83256162 -10.4375 110.8125 C-10.50700541 109.27226004 -10.52202357 107.72915012 -10.5 106.1875 C-10.49097656 105.37023437 -10.48195312 104.55296875 -10.47265625 103.7109375 C-10.46105469 103.08445312 -10.44945312 102.45796875 -10.4375 101.8125 C-11.4584375 101.503125 -11.4584375 101.503125 -12.5 101.1875 C-18.85489661 98.21286755 -23.36391328 93.62949722 -26.55078125 87.3828125 C-28.22228438 82.53766244 -28.34291143 77.83607308 -27.4375 72.8125 C-25.3125 69.5625 -25.3125 69.5625 -22.4375 67.8125 C-19.0532836 67.24846393 -16.99158688 67.63209962 -13.75 68.6875 C-10.62619095 71.55802723 -10.229401 74.40130732 -9.171875 78.42578125 C-8.21836271 81.52469618 -7.19393765 83.07988205 -4.4375 84.8125 C-0.99906129 85.1706707 2.32978145 85.12953348 5.5625 83.8125 C6.43359162 81.19922515 6.75129799 79.50538829 6.8125 76.8125 C6.85117188 75.7915625 6.85117188 75.7915625 6.890625 74.75 C6.68367 72.77106583 6.68367 72.77106583 5.52734375 71.17578125 C2.58608467 69.13502693 -0.67675538 68.6960229 -4.125 68 C-13.04617594 65.98724699 -19.19701353 62.57618366 -24.4375 54.8125 C-27.16204487 50.19497111 -27.98787426 46.29370518 -27.9375 41 C-27.93105469 40.29367432 -27.92460938 39.58734863 -27.91796875 38.85961914 C-27.65840625 31.42708111 -25.51781297 27.02700482 -20.46484375 21.75390625 C-17.25698148 18.77389214 -14.828767 16.59490837 -10.4375 15.8125 C-10.48390625 15.23242188 -10.5303125 14.65234375 -10.578125 14.0546875 C-10.83913091 8.4057739 -10.24344158 5.29007833 -6.4375 0.8125 C-4.00289024 -0.40480488 -2.69359714 -0.23441814 0 0 Z " fill="#090909" transform="translate(142.4375,69.1875)"/>
<path d="M0 0 C1.03253906 0.350625 2.06507813 0.70125 3.12890625 1.0625 C21.56088497 7.98350374 35.83000955 21.85425042 45 39 C45.49242187 39.89203125 45.98484375 40.7840625 46.4921875 41.703125 C55.03251851 58.58164901 55.64791826 81.17187367 50 99 C42.82077051 119.53331376 29.17511088 135.89372337 9.625 145.69140625 C-10.09000473 154.98882325 -31.19117604 157.32315205 -52 150 C-61.70093234 146.15778303 -70.30801751 141.09125041 -78 134 C-78.85207031 133.22785156 -79.70414063 132.45570313 -80.58203125 131.66015625 C-93.45193742 119.44628728 -103.26262287 101.68155357 -104.10986328 83.66357422 C-104.58306963 63.14868727 -102.23011867 46.13237918 -90 29 C-89.39285156 28.14535156 -88.78570312 27.29070312 -88.16015625 26.41015625 C-77.1594193 11.80999617 -61.56778627 2.42480402 -44 -2 C-42.76121094 -2.35578125 -41.52242187 -2.7115625 -40.24609375 -3.078125 C-27.08974406 -6.32656781 -12.58461958 -4.46408909 0 0 Z M-81 25 C-84.44232125 29.06502247 -87.27968873 33.41964684 -90 38 C-90.50015625 38.83015625 -91.0003125 39.6603125 -91.515625 40.515625 C-100.30524173 56.50637352 -101.67370495 76.32968225 -97.5 93.9375 C-90.84156462 114.9407751 -78.58020299 130.5027633 -59.2890625 141.39453125 C-41.09816139 150.27393785 -21.31543925 151.65907128 -2.1328125 145.48046875 C7.9057723 141.9924859 16.08273597 137.06945157 24 130 C24.77214844 129.32195312 25.54429687 128.64390625 26.33984375 127.9453125 C34.8605415 119.99266127 40.31594947 110.46761915 44.4375 99.6875 C44.80814575 98.71961548 44.80814575 98.71961548 45.1862793 97.73217773 C51.63791248 79.75730666 48.93584041 59.61388852 41.49609375 42.55078125 C33.22079708 25.7010808 17.85224829 11.60470059 0.12060547 5.49633789 C-29.18613513 -4.24610959 -59.49915068 2.08371262 -81 25 Z " fill="#090909" transform="translate(167,53)"/>
<path d="M0 0 C2.4375 0.1875 2.4375 0.1875 3.4375 1.1875 C3.42589844 2.01636719 3.41429687 2.84523438 3.40234375 3.69921875 C3.37313645 7.09143815 3.53412207 9.91062441 4.4375 13.1875 C6.76319193 15.25526745 9.05388021 16.40326468 11.8515625 17.75 C16.42427381 20.29193016 19.13318448 24.57886897 21.4375 29.1875 C21.50746014 30.89452735 21.52190154 32.60418003 21.5 34.3125 C21.49097656 35.22257812 21.48195312 36.13265625 21.47265625 37.0703125 C21.46105469 37.76898438 21.44945312 38.46765625 21.4375 39.1875 C18.4675 39.6825 18.4675 39.6825 15.4375 40.1875 C13.66106079 37.52284119 13.04948571 36.18017607 12.375 33.1875 C11.82384135 30.78244408 11.22065075 28.53695224 10.4375 26.1875 C8.01366923 25.01796584 8.01366923 25.01796584 5.4375 24.1875 C4.7775 23.8575 4.1175 23.5275 3.4375 23.1875 C-2.64573808 22.59110411 -5.70514048 23.75877564 -10.5625 27.1875 C-13.37936828 31.56204047 -13.07658113 36.1609289 -12.5625 41.1875 C-11.20852793 44.72287153 -10.07560407 45.84543062 -6.9375 47.9375 C-4.04794425 49.00770583 -2.17907518 49.39289503 0.8125 49.625 C7.50650109 50.22127237 12.34808853 52.65017374 16.8125 57.6875 C22.06131385 64.13855613 22.2191461 70.01929825 21.4375 78.1875 C19.5178649 85.03710705 15.2375362 88.90747828 9.25 92.5 C7.4375 93.1875 7.4375 93.1875 4.4375 93.1875 C4.46070313 94.01894531 4.48390625 94.85039062 4.5078125 95.70703125 C4.53488281 97.33705078 4.53488281 97.33705078 4.5625 99 C4.58570313 100.07894531 4.60890625 101.15789062 4.6328125 102.26953125 C4.4375 105.1875 4.4375 105.1875 2.4375 108.1875 C-0.0625 108.5 -0.0625 108.5 -2.5625 108.1875 C-4.5625 106.1875 -4.5625 106.1875 -4.66015625 103.54296875 C-4.64855469 102.49753906 -4.63695312 101.45210938 -4.625 100.375 C-4.80042302 95.8685249 -4.80042302 95.8685249 -7.44921875 92.49609375 C-9.03321196 91.70278806 -10.64162719 90.95659485 -12.26953125 90.2578125 C-16.5239137 88.27195085 -18.58859973 84.90341953 -20.875 80.875 C-21.86494838 77.00520179 -21.91562734 73.16223562 -21.5625 69.1875 C-20.5625 68.1875 -20.5625 68.1875 -18.125 67.9375 C-17.279375 68.02 -16.43375 68.1025 -15.5625 68.1875 C-13.78606079 70.85215881 -13.17448571 72.19482393 -12.5 75.1875 C-11.94884135 77.59255592 -11.34565075 79.83804776 -10.5625 82.1875 C-8.13866923 83.35703416 -8.13866923 83.35703416 -5.5625 84.1875 C-4.9025 84.5175 -4.2425 84.8475 -3.5625 85.1875 C0.61183895 85.58887875 2.93301713 85.44944303 6.6875 83.5 C10.10501786 80.62617816 12.12322901 78.58381627 12.71875 74.04296875 C12.90643269 69.32744128 12.67731251 65.85928751 9.4375 62.1875 C5.60317163 59.53296497 2.08727085 58.95700079 -2.4375 58.375 C-9.19660277 57.36029599 -13.55277135 54.82900842 -17.90234375 49.56640625 C-22.33679818 43.23823463 -22.32423913 36.66317244 -21.5625 29.1875 C-19.34123172 22.75204986 -14.25507382 18.62924443 -8.5625 15.1875 C-7.5725 14.8575 -6.5825 14.5275 -5.5625 14.1875 C-5.51351562 13.34445313 -5.46453125 12.50140625 -5.4140625 11.6328125 C-5.33929688 10.53710938 -5.26453125 9.44140625 -5.1875 8.3125 C-5.11789063 7.22195312 -5.04828125 6.13140625 -4.9765625 5.0078125 C-4.43835863 1.34193333 -3.76490535 0.27548088 0 0 Z " fill="#BBBBBB" transform="translate(141.5625,73.8125)"/>
<path d="M0 0 C7.26 0 14.52 0 22 0 C22.4125 3.361875 22.825 6.72375 23.25 10.1875 C24.2584357 17.98346154 25.60462244 25.21157282 28.23046875 32.63671875 C29 35 29 35 29 38 C22.07 38 15.14 38 8 38 C4.62357115 30.88212297 2.46008085 24.48799631 1.1875 16.75 C1.0639917 16.00637207 0.9404834 15.26274414 0.81323242 14.49658203 C0.05883687 9.50971194 0 5.18995777 0 0 Z " fill="#919191" transform="translate(8,130)"/>
<path d="M0 0 C0.87454834 0.00523682 1.74909668 0.01047363 2.65014648 0.01586914 C3.59438477 0.0190918 4.53862305 0.02231445 5.51147461 0.02563477 C6.50469727 0.03401367 7.49791992 0.04239258 8.52124023 0.05102539 C9.51833008 0.05553711 10.51541992 0.06004883 11.54272461 0.06469727 C14.01478872 0.07652532 16.48673541 0.0930069 18.95874023 0.11352539 C18.32976244 3.36144897 17.6186354 6.56791925 16.80249023 9.77368164 C14.42816533 19.27889275 12.35144195 28.29598243 11.95874023 38.11352539 C4.69874023 38.11352539 -2.56125977 38.11352539 -10.04125977 38.11352539 C-10.04125977 32.59683972 -9.61971195 0.53500371 0 0 Z " fill="#919191" transform="translate(18.041259765625,87.886474609375)"/>
<path d="M0 0 C0.88365234 0.01804688 1.76730469 0.03609375 2.67773438 0.0546875 C4.84812543 0.10161487 7.01795519 0.17335269 9.1875 0.25 C6.21752558 4.31284615 3.23792416 8.24434153 -0.1875 11.9375 C-6.83785411 19.4136187 -11.36696248 28.35892495 -15.8125 37.25 C-23.0725 37.25 -30.3325 37.25 -37.8125 37.25 C-32.05003394 24.83853464 -24.46929522 13.98530575 -14.8125 4.25 C-14.11253906 3.51265625 -13.41257812 2.7753125 -12.69140625 2.015625 C-8.49339404 -0.55900393 -4.81777926 -0.18681918 0 0 Z " fill="#939393" transform="translate(55.8125,45.75)"/>
<path d="M0 0 C7.26 0 14.52 0 22 0 C23.134375 2.2275 24.26875 4.455 25.4375 6.75 C31.3080581 17.95509275 38.98156395 28.11341243 48 37 C28.05716738 38.29628412 28.05716738 38.29628412 23.3125 34.1875 C21.640625 32.234375 21.640625 32.234375 20 30 C18.94039062 28.80117187 18.94039062 28.80117187 17.859375 27.578125 C13.48557318 22.54974059 9.68016232 17.2092468 6.0625 11.625 C5.68488525 11.04226318 5.30727051 10.45952637 4.91821289 9.85913086 C2.85775057 6.59669303 1.45122615 3.62806537 0 0 Z " fill="#939393" transform="translate(18,173)"/>
<path d="M0 0 C18.84076998 -1.20749594 18.84076998 -1.20749594 23.6875 3 C24.32816406 3.63421875 24.96882813 4.2684375 25.62890625 4.921875 C28.8232879 7.72156369 32.31977259 9.40671488 36.125 11.25 C36.79490967 11.57871094 37.46481934 11.90742188 38.1550293 12.24609375 C42.38481023 14.29284616 46.66917758 16.17767992 51 18 C51 18.33 51 18.66 51 19 C45.2930074 19.2583725 40.43507429 18.36895464 34.9375 16.875 C34.10476562 16.65054199 33.27203125 16.42608398 32.4140625 16.19482422 C20.73083741 12.93078956 9.8089424 8.26662468 0 1 C0 0.67 0 0.34 0 0 Z " fill="#8E8E8E" transform="translate(54,215)"/>
<path d="M0 0 C-2.32484738 2.32484738 -4.1179997 2.90677722 -7.1875 4.0625 C-15.20247925 7.30919655 -24.52233028 11.75750201 -30.859375 17.76171875 C-34.4285869 19.8263906 -38.21558656 19.31042353 -42.25 19.1875 C-43.09046875 19.17396484 -43.9309375 19.16042969 -44.796875 19.14648438 C-46.86485938 19.11123464 -48.93251271 19.0574302 -51 19 C-47.6375808 15.14740716 -43.96018351 13.18707766 -39.4375 11 C-38.72223145 10.65042236 -38.00696289 10.30084473 -37.27001953 9.94067383 C-25.65777159 4.34857645 -13.07529136 -0.39562152 0 0 Z " fill="#909090" transform="translate(105,22)"/>
<path d="M0 0 C3.34373475 0.55728913 6.03312999 1.35173889 9 3 C8.67 4.32 8.34 5.64 8 7 C1.25 6.125 1.25 6.125 -1 5 C-0.67 3.35 -0.34 1.7 0 0 Z " fill="#141414" transform="translate(225,153)"/>
<path d="M0 0 C0.53625 0.37125 1.0725 0.7425 1.625 1.125 C0.625 4.125 0.625 4.125 -1.625 5.375 C-4.65736729 6.20200926 -6.38620724 5.97894079 -9.375 5.125 C-9.25 3.25 -9.25 3.25 -8.375 1.125 C-5.17736297 -0.43828922 -3.40862085 -1.25580768 0 0 Z " fill="#151515" transform="translate(232.375,97.875)"/>
<path d="M0 0 C1.8125 0.1875 1.8125 0.1875 4 1 C5.8125 3.3125 5.8125 3.3125 7 6 C6.6875 8.3125 6.6875 8.3125 6 10 C5.01 10 4.02 10 3 10 C0.75 7.25 0.75 7.25 -1 4 C-0.75 1.625 -0.75 1.625 0 0 Z " fill="#121212" transform="translate(193,197)"/>
<path d="M0 0 C0.99 0.33 1.98 0.66 3 1 C3 3.97 3 6.94 3 10 C1.68 10 0.36 10 -1 10 C-2 9 -2 9 -2.1875 5.5625 C-2 2 -2 2 0 0 Z " fill="#131313" transform="translate(142,214)"/>
<path d="M0 0 C0.598125 0.226875 1.19625 0.45375 1.8125 0.6875 C1.21589753 4.02847385 0.18174875 6.23050129 -2.1875 8.6875 C-3.5075 8.6875 -4.8275 8.6875 -6.1875 8.6875 C-5.58623418 3.27610759 -5.58623418 3.27610759 -3.875 0.75 C-2.1875 -0.3125 -2.1875 -0.3125 0 0 Z " fill="#0F0F0F" transform="translate(90.1875,199.3125)"/>
<path d="M0 0 C5.31975997 0.2533219 5.31975997 0.2533219 8 1 C9.5 3.0625 9.5 3.0625 10 5 C9.67 5.33 9.34 5.66 9 6 C3.68024003 5.7466781 3.68024003 5.7466781 1 5 C-0.5 2.9375 -0.5 2.9375 -1 1 C-0.67 0.67 -0.34 0.34 0 0 Z " fill="#0E0E0E" transform="translate(50,97)"/>
<path d="M0 0 C-0.33 1.32 -0.66 2.64 -1 4 C-5.455 4.495 -5.455 4.495 -10 5 C-9 1 -9 1 -7.25 -0.3125 C-4.48679971 -1.1568112 -2.75194864 -0.76443018 0 0 Z " fill="#0C0C0C" transform="translate(59,155)"/>
<path d="M0 0 C1.32 0 2.64 0 4 0 C3.39873418 5.41139241 3.39873418 5.41139241 1.6875 7.9375 C0 9 0 9 -2.1875 8.6875 C-2.785625 8.460625 -3.38375 8.23375 -4 8 C-2.87548273 5.0280615 -1.77706209 2.66559313 0 0 Z " fill="#0C0C0C" transform="translate(195,51)"/>
<path d="M0 0 C2.71097227 0.37392721 3.82000467 0.81357627 5.75 2.8125 C7 5 7 5 7 9 C3.92468444 8.66753345 2.38167494 8.36895244 0.125 6.1875 C-1 4 -1 4 -0.6875 1.75 C-0.460625 1.1725 -0.23375 0.595 0 0 Z " fill="#0C0C0C" transform="translate(85,49)"/>
<path d="M0 0 C1.32 0.33 2.64 0.66 4 1 C4 3.97 4 6.94 4 10 C2.68 10 1.36 10 0 10 C0 6.7 0 3.4 0 0 Z " fill="#080808" transform="translate(141,31)"/>
<path d="M0 0 C-2.6855594 2.6855594 -5.37621328 3.06049974 -9 4 C-8.67 3.01 -8.34 2.02 -8 1 C-5.29120665 -0.35439668 -2.99066732 -0.06501451 0 0 Z " fill="#818181" transform="translate(105,22)"/>
</svg>
